<svg width="204" height="204" viewBox="0 0 204 204" fill="none" xmlns="http://www.w3.org/2000/svg">
<path d="M148.952 62.8734C159.646 60.4987 173.575 49.8844 175.695 44.6569C176.938 41.5969 170.738 36.8156 169.081 34.8872C165.288 30.4884 166.818 28.3209 168.284 23.0775C169.958 17.1169 165.989 10.5347 160.363 7.95281C154.737 5.37093 148.012 6.18375 142.354 8.70187C136.696 11.22 131.867 15.2681 127.133 19.2525C123.675 17.0691 118.161 7.42687 109.236 13.6903C103.068 18.0094 102.51 27.4125 103.307 34.9191C105.172 52.2431 109.443 61.2319 117.491 63.6544C127.659 66.7144 138.911 65.1047 148.952 62.8734Z" fill="#E7BB34"/>
<path d="M166.324 13.0369C164.969 36.3853 142.194 51.8766 131.389 58.6978L138.401 64.7222C138.401 64.7222 142.848 64.8178 148.936 62.8734C159.375 59.5584 174.627 50.1872 175.679 44.6569C177.225 36.6084 168.969 38.3616 167.105 32.0025C166.132 28.6397 171.838 22.2806 166.324 13.0369ZM127.149 19.2684C127.149 19.2684 123.085 15.1087 120.073 13.2122C118.575 16.0331 117.507 19.0931 116.981 22.2487C116.041 27.795 116.981 35.6681 119.197 41.5331C119.547 42.4416 120.854 42.2981 120.997 41.3419C122.91 28.7353 127.149 19.2684 127.149 19.2684Z" fill="#E2A610"/>
<path d="M98.7488 60.8175C98.7488 60.8175 49.0397 66.1885 26.6157 109.347C4.1916 152.506 23.2528 178.675 43.4297 188.206C63.6066 197.737 114.447 201.099 147.518 193.258C180.588 185.417 188.859 169.161 187.313 153.462C185.066 130.544 163.774 116.455 163.774 116.455C163.774 116.455 164.618 88.1503 142.657 69.7744C123.165 53.4544 98.7488 60.8175 98.7488 60.8175Z" fill="#E7BB34"/>
<path d="M119.149 133.445C108.487 119.993 95.896 118.193 91.8638 113.363C89.6644 110.734 88.3735 108.072 88.8675 104.773C89.3935 101.267 93.4575 98.8444 96.6132 98.2547C100.295 97.5535 109.076 97.92 116.455 104.948C118.208 106.606 117.571 109.188 117.523 111.499C117.396 116.455 124.488 121.268 130.225 117.125C135.979 112.965 131.564 103.705 127.851 99.211C125.046 95.8163 114.878 88.3416 102.239 87.1622C98.685 86.8275 84.3891 84.7078 76.1335 100.406C73.7588 104.917 72.8822 115.818 85.3135 125.03C87.9113 126.958 101.394 133.811 105.14 138.258C111.626 145.956 107.18 152.729 102.112 153.622C88.2938 156.044 80.4685 148.569 79.0182 144.473C77.9822 141.557 79.066 138.401 77.7272 135.66C76.3566 132.839 73.5516 131.723 70.5872 132.664C60.8653 135.756 63.9572 146.386 68.2603 152.235C72.8663 158.498 78.5241 162.276 84.8832 164.348C108.614 172.077 120.025 159.869 122.018 150.928C123.484 144.378 123.324 138.704 119.149 133.445Z" fill="#6B4B46"/>
<path d="M113.411 78.0778C93.2185 121.205 89.7441 175.663 89.7441 175.663" stroke="#6B4B46" stroke-width="0.625" stroke-miterlimit="10"/>
<path d="M130.162 50.9362C143.613 55.3191 146.593 67.4794 145.621 70.7944C144.457 74.6831 129.556 59.5425 107.403 60.4509C99.6572 60.7697 101.904 56.0203 105.49 53.2791C110.224 49.6612 118.177 47.0475 130.162 50.9362Z" fill="#6D4C41"/>
<path d="M130.162 50.9362C143.613 55.3191 146.593 67.4794 145.621 70.7944C144.457 74.6831 129.556 59.5425 107.403 60.4509C99.6572 60.7697 101.904 56.0203 105.49 53.2791C110.224 49.6612 118.177 47.0475 130.162 50.9362Z" fill="#6B4B46"/>
<path d="M153.781 93.8082C155.47 92.6447 161.144 94.6529 162.738 105.761C163.519 111.196 163.758 116.455 163.758 116.455C163.758 116.455 157.064 110.447 154.849 106.223C152.06 100.884 150.976 95.7207 153.781 93.8082Z" fill="#E2A610"/>
</svg>
