<svg width="142" height="142" viewBox="0 0 142 142" fill="none" xmlns="http://www.w3.org/2000/svg">
<path d="M16.6406 71C14.8212 71 13.3125 69.4913 13.3125 67.6719V66.6513C13.3125 64.61 14.9544 63.0125 16.9512 63.0125H19.9688V67.6719C19.9688 69.4913 18.46 71 16.6406 71Z" fill="#F8312F"/>
<path d="M68.9587 93.1875H55.6462L62.125 131.971C62.2581 132.637 62.835 133.125 63.5006 133.125H74.3281C74.9937 133.125 75.5262 132.504 75.4375 131.838L68.9587 93.1875ZM88.5281 93.1875H101.841L93.0987 132.06C92.9656 132.681 92.4331 133.125 91.7675 133.125H80.94C80.7746 133.13 80.6103 133.097 80.46 133.028C80.3098 132.958 80.1778 132.855 80.0744 132.726C79.9711 132.597 79.8992 132.445 79.8646 132.283C79.83 132.122 79.8335 131.954 79.875 131.794L88.5281 93.1875Z" fill="#9C5815"/>
<path d="M84.5344 43.1325C85.385 37.2249 88.3686 31.8329 92.9221 27.9743C97.4757 24.1156 103.284 22.0572 109.251 22.1875C122.164 22.4538 132.77 32.9707 133.125 45.8838C133.262 50.5643 132.049 55.1853 129.632 59.1958C127.215 63.2062 123.696 66.4366 119.493 68.5017C119.703 69.6288 119.81 70.787 119.812 71.9763V95.4063C119.812 95.8944 120.079 96.3382 120.434 96.56L125.626 100.021C127.534 101.308 128.688 103.483 128.732 105.79V131.749C128.732 132.504 128.111 133.125 127.356 133.125H116.795C116.041 133.125 115.419 132.504 115.419 131.749V116.307C115.419 115.73 115.064 115.242 114.532 115.02L103.66 110.671C100.613 109.456 97.9929 107.366 96.1296 104.666C94.2663 101.966 93.2427 98.7753 93.1875 95.495L74.7275 93.1875L53.25 97.625V102.817C53.25 109.784 47.6588 115.375 40.6919 115.375H35.5V117.061C35.5 118.57 34.2575 119.813 32.7488 119.813H24.9831C23.43 119.813 22.1875 118.57 22.1875 117.061V114.088C22.1875 107.432 27.5569 102.063 34.1687 102.063H39.9375V97.4919C34.2575 91.9007 31.0625 84.2682 31.0625 76.2807V67.9382C31.0625 67.1838 30.4412 66.5625 29.6869 66.5625H22.1875C14.8212 66.5625 8.875 60.6163 8.875 53.25V52.185C8.875 50.3213 10.3837 48.8125 12.2475 48.8125H18.9481C20.8562 48.8125 22.5425 47.5257 22.9862 45.6619L23.3856 44.0644C24.3149 40.3533 26.4566 37.0588 29.4712 34.7034C32.4858 32.348 36.2006 31.0666 40.0263 31.0625H48.635C51.2088 31.0625 53.5606 32.66 54.4925 35.0563L60.0394 48.9013L60.3367 49.6645C61.4505 52.5711 63.4474 57.7896 69.4025 57.0219L99.6662 53.2944C102.738 53.0516 105.822 53.5743 108.643 54.8157C111.463 56.0571 113.932 57.9784 115.828 60.4077C118.493 59.0346 120.706 56.9212 122.2 54.3212C123.694 51.7212 124.406 48.7453 124.25 45.7507C123.806 37.8075 117.372 31.4175 109.473 31.0625C103.128 30.7519 97.5806 34.2575 94.9181 39.4938C93.365 42.5113 90.17 44.375 86.7975 44.375H85.6437C85.4862 44.3762 85.3301 44.3437 85.186 44.2798C85.042 44.216 84.9132 44.1221 84.8082 44.0045C84.7032 43.887 84.6245 43.7484 84.5773 43.598C84.5301 43.4477 84.5155 43.289 84.5344 43.1325Z" fill="#F2B36F"/>
<path d="M53.25 97.625V88.7944L86.3981 88.75C90.17 88.75 93.1875 91.7986 93.1875 95.5039C90.189 96.912 86.9152 97.6365 83.6025 97.625H53.25Z" fill="#FFDEA7"/>
<path d="M31.0625 50.3213C31.0625 51.5194 32.0387 52.5401 33.2812 52.5401C34.5238 52.5401 35.5 51.5194 35.5 50.3213V47.7919C35.5 46.5494 34.5238 45.5732 33.2812 45.5732C32.0387 45.5732 31.0625 46.5494 31.0625 47.7919V50.3213ZM12.2031 55.4688H14.4219C16.2413 55.4688 17.75 53.9601 17.75 52.1407C17.75 50.3213 16.2413 48.8126 14.4219 48.8126H12.2031C10.3837 48.8126 8.875 50.3213 8.875 52.1407C8.875 53.9601 10.3837 55.4688 12.2031 55.4688Z" fill="#212121"/>
<path d="M39.9375 31.0625H55.735C58.9744 31.0625 61.3706 34.1244 60.5719 37.275L57.9094 47.8806C57.155 51.0312 54.315 53.25 51.0312 53.25C47.7919 53.25 44.9519 51.0312 44.1531 47.8806L39.9375 31.0625Z" fill="#9C5815"/>
</svg>
