<svg width="164" height="164" viewBox="0 0 164 164" fill="none" xmlns="http://www.w3.org/2000/svg">
<g clip-path="url(#clip0_24_744)">
<path d="M47.7331 102.222C47.7331 102.222 50.9311 112.613 46.1978 138.635C45.3505 143.304 44.1023 148.074 43.4691 151.983C35.4649 151.983 35.0367 161.103 36.7359 161.103H46.2753C52.3661 161.103 59.8098 145.915 63.8324 124.836C67.8549 103.757 47.7331 102.222 47.7331 102.222ZM107.147 119.087C107.147 119.087 117.497 124.645 117.114 137.678C116.964 142.83 115.98 147.204 115.497 151.454C107.151 151.454 107.119 160.497 109.552 160.497H118.007C122.212 160.497 131.678 146.11 133.4 127.328C135.122 108.545 107.147 119.087 107.147 119.087Z" fill="#7B6E61"/>
<path d="M164 38.4808C164 16.0583 145.135 4.55554 123 4.55554C121.792 4.55554 120.633 5.0355 119.779 5.88983C118.924 6.74417 118.444 7.90289 118.444 9.1111C118.444 10.3193 118.924 11.478 119.779 12.3324C120.633 13.1867 121.792 13.6667 123 13.6667C131.218 13.6667 153.6 17.9215 153.6 38.4808C153.6 51.6053 146.461 63.3632 136.425 65.7321C135.678 65.3995 134.854 65.2583 134.106 64.8574C101.129 47.0133 72.8024 68.9665 64.7436 63.5363C56.7623 58.1516 62.2881 48.708 51.8787 39.6515C50.3754 31.2648 46.9906 19.2563 43.706 19.2563C41.205 19.2563 37.9433 27.5702 35.7794 35.9114C33.087 29.6202 29.5701 23.3563 27.306 23.3563C24.3905 23.3563 21.484 33.7111 20.0445 42.6491C12.3911 47.8743 6.80603 55.4457 6.80603 64.3563C6.80603 76.6563 25.256 79.6493 31.406 79.8953C37.556 80.1413 45.1775 96.1222 47.7377 103.001C53.3957 122.895 57.0811 142.63 60.0286 153.946C52.5165 153.946 51.8104 163.563 53.8877 163.563C57.1358 163.563 62.7847 163.549 64.0238 163.563C70.315 163.626 73.2534 142.124 73.2534 123.251C73.2534 122.285 73.2033 120.394 73.2033 120.394C73.2033 120.394 81.9955 122.695 100.71 119.447C111.843 117.515 123.624 123.314 126.886 133.856C129.287 141.619 133.259 148.912 135.396 154.283C128.157 154.283 128.357 163.563 130.457 163.563C134.043 163.563 138.662 163.626 140.402 163.563C147.09 163.312 143.331 129.059 145.094 117.565C146.857 106.072 150.866 92.1543 144.051 77.49C158.793 69.4084 164 52.4116 164 38.4808Z" fill="#BCAB82"/>
<path d="M27.3061 57.7098C29.5704 57.7098 31.4061 55.8741 31.4061 53.6098C31.4061 51.3454 29.5704 49.5098 27.3061 49.5098C25.0417 49.5098 23.2061 51.3454 23.2061 53.6098C23.2061 55.8741 25.0417 57.7098 27.3061 57.7098Z" fill="#292F33"/>
<path d="M13.5937 58.5845C10.5096 60.5115 10.5096 66.6797 8.96984 66.6797C7.43006 66.6797 4.34595 63.0535 4.34595 58.5845C4.34139 54.1155 17.3839 56.2156 13.5937 58.5845Z" fill="#E75A70"/>
<path d="M29.9665 65.3403C29.7752 65.4618 29.5595 65.5013 29.3196 65.4588C29.2376 65.4406 22.2676 64.3609 17.7257 66.1239C17.138 66.3517 16.1723 66.0191 15.8443 65.2538C15.5163 64.4885 15.949 63.591 16.5367 63.3632C23.0967 60.7711 29.5519 62.2972 29.9027 62.3701C30.5359 62.5022 30.791 63.2357 30.7592 64.0648C30.7409 64.5841 30.2854 65.1353 29.9665 65.3403ZM27.8163 75.9958C27.592 76.0303 27.363 75.98 27.1739 75.8546C27.1056 75.809 21.1105 72.0735 16.2315 71.9687C15.6028 71.955 14.842 71.2671 14.842 70.4152C14.842 69.5679 15.5937 68.8891 16.2269 68.8982C23.2972 69.0076 28.6363 72.9572 28.9324 73.1668C29.4654 73.5403 29.4062 74.3285 29.0554 75.0983C28.8322 75.5858 28.1944 75.9274 27.8163 75.9958Z" fill="#FEE7B8"/>
<path d="M35.7794 35.9023C35.7794 35.9023 37.474 35.7246 39.6926 36.0526C40.6811 33.9571 42.3576 32.0119 42.3576 32.0119C42.3576 32.0119 43.6377 35.055 44.116 37.3829C44.2299 37.9295 45.1091 37.9159 45.5829 38.2439C45.5829 38.2439 45.756 22.468 41.6515 20.7687C41.656 20.7596 38.212 25.8892 35.7794 35.9023ZM20.0399 42.64C20.0399 42.64 21.7892 41.4236 24.0625 40.0251C25.051 37.1824 26.65 33.9525 26.65 33.9525C26.65 33.9525 28.0486 36.695 28.2217 37.6425C29.1784 37.1232 29.1784 37.1596 30.0576 36.777C30.0576 36.777 29.5383 26.363 25.051 25.2651C25.051 25.2651 21.7164 31.5153 20.0399 42.64Z" fill="#7B6E61"/>
<path d="M84.05 107.712C71.9823 110.308 73.2078 120.385 73.2078 120.385C73.2078 120.385 82 122.686 100.714 119.438C105.499 118.638 110.413 119.234 114.868 121.155C107.548 107.274 95.2111 105.306 84.05 107.712Z" fill="#FFDD99"/>
<path d="M66.9028 64.2744C69.0713 67.3539 77.8225 75.0619 79.4078 74.1098C80.9476 73.185 82.0956 64.7481 80.9658 61.7825C74.9115 63.4179 70.1008 64.78 66.9028 64.2744ZM98.901 76.5243C101.739 77.1529 105.766 62.9533 105.324 57.7417C98.7234 57.8191 92.6599 58.9079 87.2616 60.188C88.7877 65.108 96.1586 75.9138 98.901 76.5243ZM110.868 57.9285C111.06 61.2221 115.342 69.7866 116.722 70.397C118.121 71.0211 124.399 64.3883 125.223 61.008C120.59 59.3713 115.765 58.3363 110.868 57.9285Z" fill="#7B6E61"/>
</g>
<defs>
<clipPath id="clip0_24_744">
<rect width="164" height="164" fill="white"/>
</clipPath>
</defs>
</svg>
