<svg width="1318" height="17" viewBox="0 0 1318 17" fill="none" xmlns="http://www.w3.org/2000/svg">
<path d="M1317.89 15.4684C1296.05 15.4796 1295.81 1.02376 1273.97 1.03341C1252.14 1.04306 1251.87 15.4959 1230.03 15.5072C1208.21 15.5185 1207.93 1.09042 1186.11 1.10007C1164.29 1.10971 1163.99 15.5347 1142.17 15.546C1120.36 15.5573 1120.06 1.1571 1098.26 1.16673C1076.45 1.17636 1076.12 15.5735 1054.31 15.5848C1032.52 15.5961 1032.19 1.22377 1010.4 1.23339C988.609 1.24301 988.242 15.6123 966.453 15.6236C944.68 15.6349 944.312 1.29044 922.539 1.30005C900.766 1.30966 900.367 15.6511 878.595 15.6624C856.838 15.6737 856.437 1.3571 834.681 1.36671C812.924 1.37632 812.493 15.69 790.736 15.7012C768.996 15.7125 768.563 1.42377 746.822 1.43337C725.082 1.44297 724.619 15.7287 702.878 15.7401C681.153 15.7514 680.688 1.49043 658.964 1.50003C637.239 1.50963 636.744 15.7676 615.019 15.7789C593.311 15.7902 592.814 1.5571 571.105 1.56669C549.397 1.57628 548.87 15.8064 527.161 15.8177C505.468 15.829 504.94 1.62377 483.247 1.63335C461.554 1.64293 460.995 15.8452 439.303 15.8565C417.626 15.8678 417.065 1.69044 395.388 1.70001C373.712 1.70959 373.121 15.884 351.444 15.8953C329.783 15.9066 329.191 1.7571 307.53 1.76667C285.869 1.77624 285.247 15.9228 263.586 15.9341C241.941 15.9454 241.317 1.82377 219.672 1.83333C198.027 1.84289 197.372 15.9616 175.727 15.9729C154.098 15.9842 153.442 1.89044 131.813 1.89999C110.184 1.90955 109.498 16.0004 87.869 16.0117C66.2557 16.023 65.5681 1.95711 43.9547 1.96665C22.3414 1.9762 21.624 16.0392 0.0106605 16.0505" stroke="#555086"/>
</svg>
