<svg width="204" height="204" viewBox="0 0 204 204" fill="none" xmlns="http://www.w3.org/2000/svg">
<path d="M28.1406 81.4527C8.26198 77.7693 7.81431 45.7697 28.4296 46.0133C44.5626 46.206 42.9363 61.8517 45.118 58.7747C49.3566 52.7963 50.7223 37.417 34.5666 31.042C20.621 25.5397 1.4393 36.686 0.209641 57.0577C-0.57803 70.1023 7.55931 94.197 36.7766 90.185C77.7013 84.5693 48.0136 85.1303 28.1406 81.4527Z" fill="#E69169"/>
<path d="M145.514 124.298C145.514 124.298 139.757 137.626 141.684 171.003C142.029 176.993 142.868 183.107 143.055 188.128C153.323 188.128 152.416 199.824 150.24 199.824H133.796C129.925 199.824 123.069 180.342 121.261 153.306C119.453 126.265 145.514 124.298 145.514 124.298ZM78.1377 122.423C78.1377 122.423 74.8793 142.415 57.4487 158.763C55.9923 165.353 53.091 182.744 52.071 188.201C62.7753 188.201 59.3357 199.801 56.2133 199.801H41.2193C35.8303 199.801 35.0313 180.296 40.052 156.202C45.067 132.113 78.1377 122.423 78.1377 122.423Z" fill="#C1694F"/>
<path d="M21.522 88.706C28.6223 67.4446 62.4013 68.1473 100.838 73.0376C118.15 75.242 121.465 47.804 121.465 43.0836C121.465 22.5363 139.848 12.172 158.276 19.1193C162.69 20.7796 166.22 26.656 168.215 29.7273C179.418 46.937 194.61 29.8123 196.078 45.7186C197.852 64.957 186.326 71.4113 167.456 73.0376C156.734 73.9613 147.855 79.2426 145.52 101.62C144.647 109.962 147.192 133.603 131.988 141.718C127.568 158.485 121.584 179.203 119.238 189.743C131.999 192.44 126.837 202.09 126.837 202.09C126.837 202.09 108.981 201.847 105.1 201.847C100.487 201.847 104.017 167.983 110.398 146.387C83.402 146.631 66.0393 138.811 60.537 136.402C54.7117 153.176 37.009 156.989 33.048 164.124C30.5943 168.544 22.406 183.294 21.709 189.601C30.787 192.548 27.8913 199.416 26.86 201.626C20.723 201.382 8.61334 201.382 7.03801 201.382C0.748001 201.382 13.481 162.259 18.8417 152.008C24.973 140.273 14.416 109.967 21.522 88.706Z" fill="#E69169"/>
<path d="M111.826 138.629C111.577 140.732 111.027 143.678 110.392 146.387C83.3963 146.631 66.0337 138.811 60.5313 136.402C61.7497 131.982 61.8347 129.206 61.5003 127.687C80.733 130.843 87.2723 140.182 111.826 138.629ZM167.456 73.0376C156.734 73.9613 153.714 79.0953 151.374 101.473C150.501 109.814 147.186 133.603 131.988 141.718C136.068 125.919 143.089 71.519 167.456 73.0376Z" fill="#F4C7B5"/>
<path d="M186.133 37.7683C201.96 37.7683 196.951 40.749 197.478 47.3563C198.005 53.9636 197.897 64.2203 193.08 69.6206C186.694 76.772 171.218 76.7946 163.529 71.1903C155.839 65.586 165.931 37.7683 186.133 37.7683Z" fill="#F4C7B5"/>
<path d="M189.816 47.1807C190.434 51.4987 192.616 53.9354 194.797 53.601C199.104 52.938 202.685 47.4414 202.685 43.0837C202.685 38.726 199.149 37.6267 194.797 37.825C188.887 38.097 189.119 42.2904 189.816 47.1807Z" fill="#272B2B"/>
<path d="M118.054 51.1473C116.082 65.399 124.61 67.5693 131.557 67.5693C138.505 67.5693 148.863 60.486 147.129 46.206C146.37 39.933 143.984 33.779 142.545 28.2143C140.641 20.8307 135.751 18.3997 131.812 20.468C122.377 25.4207 119.329 41.9843 118.054 51.1473Z" fill="#662113"/>
<path d="M158.276 43.0837C155.371 43.0837 153.017 40.7293 153.017 37.825C153.017 34.9207 155.371 32.5663 158.276 32.5663C161.18 32.5663 163.534 34.9207 163.534 37.825C163.534 40.7293 161.18 43.0837 158.276 43.0837Z" fill="#292F33"/>
<path d="M96.135 72.471C95.7213 81.1523 91.001 90.4797 80.648 93.228C69.8757 96.0897 57.3013 93.9477 54.1847 79.203C53.669 76.7663 53.448 72.267 53.771 70.6237C65.96 69.6093 80.5743 70.6237 96.135 72.471Z" fill="#C1694F"/>
<path d="M186.7 62.2823C185.172 62.2823 183.934 61.0442 183.934 59.517C183.934 57.9897 185.172 56.7516 186.7 56.7516C188.227 56.7516 189.465 57.9897 189.465 59.517C189.465 61.0442 188.227 62.2823 186.7 62.2823Z" fill="#E69169"/>
<path d="M183.062 57.0803C182.22 57.0803 181.537 56.3979 181.537 55.556C181.537 54.7141 182.22 54.0317 183.062 54.0317C183.904 54.0317 184.586 54.7141 184.586 55.556C184.586 56.3979 183.904 57.0803 183.062 57.0803Z" fill="#E69169"/>
<path d="M180.767 61.0413C179.925 61.0413 179.242 60.3589 179.242 59.517C179.242 58.6751 179.925 57.9927 180.767 57.9927C181.609 57.9927 182.291 58.6751 182.291 59.517C182.291 60.3589 181.609 61.0413 180.767 61.0413Z" fill="#E69169"/>
</svg>
